<svg width="93" height="17" viewBox="0 0 93 17" fill="none" xmlns="http://www.w3.org/2000/svg">
<rect x="59" width="20" height="1" fill="white"/>
<rect x="67" y="16" width="20" height="1" fill="white"/>
<rect x="53" y="8" width="40" height="1" fill="white"/>
<path d="M2.46 13V9.856C2.46 8.764 2.448 7.936 2.364 7.408L4.584 13H6L8.232 7.396C8.148 8.02 8.148 8.536 8.148 10.3V13H9.636V4.228H8.124L5.292 11.212L2.46 4.228H0.972V13H2.46ZM18.2255 13V11.584H14.3135V9.256H17.8175V7.9H14.3135V5.644H18.2255V4.228H12.7775V13H18.2255ZM22.6027 13V6.784L26.7307 13H28.2428V4.228H26.7307V10.444L22.6147 4.228H21.0907V13H22.6027ZM35.3325 3.604L34.4325 1.816H33.0765L34.2405 3.604H35.3325ZM31.3245 9.796C31.3245 11.86 32.6685 13.144 34.7925 13.144C36.9285 13.144 38.2725 11.848 38.2725 9.796V4.228H36.7365V9.7C36.7365 10.948 36.0405 11.656 34.7925 11.656C33.5445 11.656 32.8605 10.96 32.8605 9.7V4.228H31.3245V9.796Z" fill="white"/>
</svg>
