<svg width="87" height="90" viewBox="0 0 87 90" fill="none" xmlns="http://www.w3.org/2000/svg">
<path d="M85.1982 27.0816C78.3368 11.7119 62.9193 1 45 1C20.6995 1 1 20.6995 1 45C1 69.3005 20.6995 89 45 89C63.272 89 78.9426 77.8624 85.5933 62.0057" stroke="#2E4056"/>
<path fill-rule="evenodd" clip-rule="evenodd" d="M56.6893 43.4322C56.8399 43.5828 56.9245 43.787 56.9245 44C56.9245 44.213 56.8399 44.4172 56.6893 44.5678L49.8753 51.3817C49.7247 51.5323 49.5205 51.6169 49.3075 51.6169C49.0945 51.6169 48.8903 51.5323 48.7397 51.3817C48.5891 51.2311 48.5045 51.0269 48.5045 50.8139C48.5045 50.6009 48.5891 50.3967 48.7397 50.2461L54.1829 44.8029L31.1371 44.804C31.0315 44.804 30.9269 44.7832 30.8294 44.7428C30.7318 44.7024 30.6432 44.6432 30.5685 44.5685C30.4939 44.4939 30.4347 44.4052 30.3942 44.3077C30.3538 44.2101 30.333 44.1056 30.333 44C30.333 43.8944 30.3538 43.7899 30.3942 43.6923C30.4347 43.5948 30.4939 43.5061 30.5685 43.4315C30.6432 43.3568 30.7318 43.2976 30.8294 43.2572C30.9269 43.2168 31.0315 43.196 31.1371 43.196L54.1829 43.1971L48.7397 37.7539C48.5891 37.6033 48.5045 37.3991 48.5045 37.1861C48.5045 36.9731 48.5891 36.7689 48.7397 36.6183C48.8903 36.4677 49.0945 36.3831 49.3075 36.3831C49.5205 36.3831 49.7247 36.4677 49.8753 36.6183L56.6893 43.4322Z" fill="#2E4056"/>
</svg>
