<svg width="46" height="46" viewBox="0 0 46 46" fill="none" xmlns="http://www.w3.org/2000/svg">
<circle r="23" transform="matrix(1 8.74228e-08 8.74228e-08 -1 23 23)" fill="#F6E656"/>
<path d="M31.1568 21.9497C31.352 22.1449 31.352 22.4615 31.1568 22.6568L27.9748 25.8387C27.7795 26.034 27.463 26.034 27.2677 25.8387C27.0724 25.6435 27.0724 25.3269 27.2677 25.1316L30.0961 22.3032L27.2677 19.4748C27.0724 19.2795 27.0724 18.9629 27.2677 18.7677C27.463 18.5724 27.7795 18.5724 27.9748 18.7677L31.1568 21.9497ZM15.8032 21.8032L30.8032 21.8032L30.8032 22.8032L15.8032 22.8032L15.8032 21.8032Z" fill="#2E4056"/>
</svg>
