<svg width="25" height="25" viewBox="0 0 25 25" fill="none" xmlns="http://www.w3.org/2000/svg">
<circle cx="12.5" cy="12.5" r="12.5" fill="#F6E656"/>
<path d="M5.8335 13.2292L12.396 6.66675L18.9585 13.2292" stroke="#2D2D2D" stroke-width="0.8" stroke-linecap="round" stroke-linejoin="round"/>
<path d="M7.29199 11.7708V17.6041C7.29199 17.7975 7.36881 17.9829 7.50556 18.1197C7.64231 18.2564 7.82777 18.3333 8.02116 18.3333H10.2087C10.402 18.3333 10.5875 18.2564 10.7243 18.1197C10.861 17.9829 10.9378 17.7975 10.9378 17.6041V14.6874C10.9378 14.494 11.0146 14.3086 11.1514 14.1718C11.2881 14.0351 11.4736 13.9583 11.667 13.9583H13.1253C13.3187 13.9583 13.5042 14.0351 13.6409 14.1718C13.7777 14.3086 13.8545 14.494 13.8545 14.6874V17.6041C13.8545 17.7975 13.9313 17.9829 14.0681 18.1197C14.2048 18.2564 14.3903 18.3333 14.5837 18.3333H16.7712C16.9645 18.3333 17.15 18.2564 17.2868 18.1197C17.4235 17.9829 17.5003 17.7975 17.5003 17.6041V11.7708" stroke="#2D2D2D" stroke-width="0.8" stroke-linecap="round" stroke-linejoin="round"/>
</svg>
