<svg width="1160" height="16" viewBox="0 0 1160 16" fill="none" xmlns="http://www.w3.org/2000/svg">
<path d="M0.516 8.632C0.516 11.344 1.896 13.156 4.224 13.156C6.552 13.156 7.944 11.344 7.944 8.632C7.944 5.908 6.468 4.06 4.224 4.06C1.98 4.06 0.516 5.908 0.516 8.632ZM2.028 8.632C2.028 6.556 2.844 5.416 4.224 5.416C5.616 5.416 6.432 6.556 6.432 8.632C6.432 10.66 5.616 11.8 4.224 11.8C2.844 11.8 2.028 10.66 2.028 8.632ZM16.2969 12.988V11.56H12.6489L14.2329 10.204C15.5649 9.064 16.2369 8.14 16.2369 6.916C16.2369 5.14 15.0729 4.072 13.2009 4.072C11.3409 4.072 10.1169 5.32 10.1049 7.24H11.6289C11.6409 6.112 12.2409 5.44 13.2009 5.44C14.1249 5.44 14.6649 6.004 14.6649 7C14.6649 7.84 14.2689 8.416 13.0809 9.424L10.2129 11.848V13L16.2969 12.988Z" fill="#AFAFAF"/>
<rect x="35" y="7" width="1125" height="1" fill="#453B73" fill-opacity="0.2"/>
</svg>
