<svg width="1160" height="16" viewBox="0 0 1160 16" fill="none" xmlns="http://www.w3.org/2000/svg">
<path d="M0.516 8.632C0.516 11.344 1.896 13.156 4.224 13.156C6.552 13.156 7.944 11.344 7.944 8.632C7.944 5.908 6.468 4.06 4.224 4.06C1.98 4.06 0.516 5.908 0.516 8.632ZM2.028 8.632C2.028 6.556 2.844 5.416 4.224 5.416C5.616 5.416 6.432 6.556 6.432 8.632C6.432 10.66 5.616 11.8 4.224 11.8C2.844 11.8 2.028 10.66 2.028 8.632ZM11.9889 5.608V13H13.4649V4.228H10.0689V5.608H11.9889Z" fill="#AFAFAF"/>
<rect x="35" y="7" width="1125" height="1" fill="#453B73" fill-opacity="0.2"/>
</svg>
