<svg width="93" height="47" viewBox="0 0 93 47" fill="none" xmlns="http://www.w3.org/2000/svg">
<path d="M30.1775 9.63384L35.1241 2.91406H40.1164V9.27025L35.1474 16.3527L30.1775 16.334V9.63384Z" stroke="white" stroke-width="1.40645" stroke-miterlimit="10"/>
<path d="M30.1775 9.63379H35.1474V16.3526" stroke="white" stroke-width="1.40645" stroke-miterlimit="10"/>
<path d="M40.1164 2.91406L35.1475 9.63383" stroke="white" stroke-width="1.40645" stroke-miterlimit="10"/>
<path d="M40.314 8.99692L45.2606 2.27808H50.2529V8.63427L45.2839 15.7167L40.314 15.6971V8.99692Z" stroke="white" stroke-width="1.40645" stroke-miterlimit="10"/>
<path d="M40.314 8.99683H45.2839V15.7166" stroke="white" stroke-width="1.40645" stroke-miterlimit="10"/>
<path d="M50.2529 2.27808L45.2839 8.99692" stroke="white" stroke-width="1.40645" stroke-miterlimit="10"/>
<path d="M50.4504 7.71978L55.3961 1H60.3893V7.35619L55.4194 14.4396L50.4504 14.42V7.71978Z" stroke="white" stroke-width="1.40645" stroke-miterlimit="10"/>
<path d="M50.4504 7.71997H55.4194V14.4397" stroke="white" stroke-width="1.40645" stroke-miterlimit="10"/>
<path d="M60.3896 1L55.4197 7.71978" stroke="white" stroke-width="1.40645" stroke-miterlimit="10"/>
<path d="M2.3092 39.9006H0.0251465V22.5017H2.3092V39.9006ZM7.26886 39.9006H1.27252V37.8757H6.8773C8.27943 37.8757 9.30492 37.642 9.95378 37.1747C10.6026 36.7073 10.9271 35.9615 10.9271 34.9372C10.9271 34.2268 10.754 33.6557 10.4078 33.2237C10.0423 32.7779 9.55468 32.4484 9.00474 32.2756C8.3505 32.0666 7.66658 31.9655 6.97985 31.9763H1.27252V29.9813H6.72534C7.32849 29.9923 7.92936 29.9044 8.50411 29.7212C8.98754 29.569 9.41129 29.2694 9.71605 28.8644C10.0094 28.4654 10.1564 27.92 10.157 27.2283C10.157 26.5179 10.0057 25.9682 9.703 25.5791C9.38176 25.1785 8.94019 24.8919 8.44351 24.7615C7.85155 24.5985 7.23955 24.5197 6.62559 24.5275H1.27252V22.5017H7.40124C8.52617 22.5017 9.46092 22.6882 10.2055 23.0611C10.9158 23.4001 11.5095 23.9422 11.9115 24.6189C12.3006 25.2858 12.4951 26.0605 12.4951 26.943C12.4966 27.4035 12.4174 27.8607 12.2611 28.2939C12.1029 28.7306 11.8483 29.126 11.5163 29.4508C11.1431 29.8131 10.7088 30.1066 10.2335 30.3178C9.63229 30.5831 8.99234 30.7499 8.33816 30.8119C9.54887 30.9331 10.5181 31.2013 11.2459 31.6165C11.9737 32.0316 12.4927 32.5528 12.8028 33.1799C13.1171 33.8175 13.2768 34.5201 13.2689 35.2309C13.2689 36.2178 13.0309 37.0618 12.5548 37.7629C12.0787 38.464 11.3982 38.9951 10.5131 39.3562C9.63246 39.7191 8.55165 39.9006 7.27072 39.9006H7.26886Z" fill="white"/>
<path d="M15.6582 39.9006H13.2698L20.2804 22.5017H22.5393L29.5499 39.9006H27.0589L22.2289 27.5397L21.3721 24.8128L20.5153 27.5397L15.6582 39.9006ZM26.0726 35.0444H17.285V33.0456H26.0726V35.0444Z" fill="white"/>
<path d="M39.1727 24.5275H25.9802V22.5017H39.1727V24.5275ZM33.719 39.9006H31.4601V22.5017H33.719V39.9006Z" fill="white"/>
<path d="M49.453 24.5275H36.2605V22.5017H49.453V24.5275ZM43.9992 39.9006H41.7441V22.5017H44.003L43.9992 39.9006Z" fill="white"/>
<path d="M53.7469 39.9006H51.4609V22.5017H53.7469V39.9006Z" fill="white"/>
<path d="M58.5499 39.9006H56.2649V22.5017H58.809L63.3026 31.1233L65.0673 34.9409L66.8387 31.1233L71.3312 22.5017H73.8484V39.9006H71.5867V30.2899L71.7936 25.5903L69.8984 29.903L66.1572 37.018H63.9766L60.2102 29.903L58.2646 25.5931L58.5499 30.2899V39.9006Z" fill="white"/>
<path d="M83.7258 40.1609C82.5471 40.1746 81.3787 39.9399 80.2969 39.4719C79.2841 39.0319 78.377 38.3806 77.6362 37.5617C76.8887 36.7273 76.3069 35.7582 75.9218 34.7062C75.5082 33.5745 75.3014 32.3777 75.3111 31.1729C75.3016 29.9813 75.5079 28.7978 75.9199 27.6797C76.3079 26.6331 76.8902 25.6693 77.6362 24.8391C78.3782 24.0212 79.2858 23.3706 80.2987 22.9307C81.3806 22.4628 82.549 22.228 83.7276 22.2418C84.9905 22.2418 86.1332 22.4714 87.1556 22.9307C88.1628 23.3797 89.068 24.029 89.8162 24.8391C90.5758 25.6622 91.1628 26.629 91.5428 27.6825C91.9479 28.8018 92.1502 29.9844 92.1404 31.1748C92.1511 32.3786 91.9488 33.5748 91.5428 34.7081C91.1642 35.7657 90.5764 36.7363 89.8144 37.5617C89.0667 38.3724 88.1613 39.0217 87.1537 39.4701C86.1307 39.93 84.988 40.1603 83.7258 40.1609ZM83.7509 38.0055C85.0841 38.0055 86.1963 37.7155 87.0875 37.1357C87.9856 36.55 88.6876 35.7086 89.1031 34.7202C89.5524 33.6903 89.7777 32.5095 89.779 31.1776C89.7802 29.8457 89.5549 28.6719 89.1031 27.6564C88.6798 26.6767 87.9792 25.8422 87.0875 25.2558C86.1963 24.6672 85.0841 24.3729 83.7509 24.3729C82.4346 24.3729 81.3221 24.6672 80.4134 25.2558C79.5097 25.8386 78.7966 26.6735 78.3624 27.6573C77.9044 28.671 77.6757 29.8438 77.6763 31.1757C77.6769 32.5076 77.9056 33.6885 78.3624 34.7183C78.7889 35.7106 79.5034 36.5521 80.4134 37.1338C81.3227 37.7149 82.4352 38.0055 83.7509 38.0055Z" fill="white"/>
<path d="M39.6921 45.5884H32.2368V45.9184H39.6921V45.5884Z" fill="white"/>
<path d="M59.9277 45.5884H52.4724V45.9184H59.9277V45.5884Z" fill="white"/>
<path d="M42.7034 47C42.5481 47.0002 42.3936 46.9779 42.2447 46.9338C42.1022 46.8918 41.9705 46.8192 41.8588 46.7213C41.7449 46.6177 41.6606 46.4858 41.6145 46.339L41.8699 46.1218C41.899 46.2497 41.9667 46.3656 42.0639 46.4537C42.1537 46.5337 42.2591 46.5943 42.3734 46.6318C42.4798 46.6672 42.5912 46.6858 42.7034 46.6868C42.7923 46.6877 42.8808 46.6742 42.9654 46.6467C43.04 46.6232 43.1068 46.5797 43.1583 46.5208C43.2092 46.4562 43.235 46.3754 43.2311 46.2933C43.2357 46.2117 43.2113 46.1311 43.1621 46.0659C43.1083 46.0059 43.0399 45.961 42.9635 45.9354C42.8659 45.9007 42.7663 45.8721 42.6652 45.8496L42.4209 45.8002C42.3354 45.7784 42.2511 45.7523 42.1683 45.7219C42.0836 45.691 42.0038 45.6479 41.9315 45.5941C41.86 45.5399 41.8014 45.4705 41.7599 45.3909C41.7087 45.2793 41.6871 45.1563 41.697 45.0339C41.707 44.9114 41.7482 44.7936 41.8168 44.6917C41.8988 44.5847 42.0074 44.5011 42.1319 44.4493C42.2644 44.3938 42.4068 44.3659 42.5505 44.3673C42.7628 44.3622 42.9725 44.4137 43.1583 44.5164C43.3305 44.6142 43.464 44.7678 43.5368 44.9518L43.2572 45.1737C43.21 45.0207 43.1111 44.8889 42.9775 44.8008C42.8455 44.7219 42.6939 44.6821 42.5402 44.6861C42.454 44.6846 42.3683 44.7008 42.2885 44.7337C42.2196 44.7613 42.1589 44.8063 42.1123 44.8642C42.0601 44.9378 42.038 45.0286 42.0505 45.118C42.063 45.2074 42.1091 45.2887 42.1795 45.3452C42.2858 45.4131 42.4027 45.4629 42.5253 45.4925L42.8115 45.5615C42.9048 45.5839 42.9905 45.6109 43.081 45.6417C43.1696 45.6698 43.2533 45.7116 43.3289 45.7657C43.4017 45.8218 43.4615 45.8931 43.5042 45.9745C43.5552 46.0847 43.5777 46.206 43.5697 46.3271C43.5618 46.4483 43.5235 46.5655 43.4585 46.6681C43.3794 46.7761 43.2724 46.8605 43.149 46.9124C43.0082 46.9724 42.8564 47.0022 42.7034 47Z" fill="white"/>
<path d="M44.3741 46.9617H43.9648V46.4648H44.3741V46.9617Z" fill="white"/>
<path d="M45.2028 46.9616H44.8672V44.4006H45.2028V46.9616ZM46.0418 45.9361H44.9791V45.6564H45.9346C46.0321 45.6571 46.1291 45.642 46.2218 45.6117C46.3064 45.5856 46.3811 45.5346 46.4362 45.4653C46.4929 45.3834 46.5211 45.2851 46.5164 45.1856C46.5224 45.0801 46.4943 44.9755 46.4362 44.8873C46.3817 44.8159 46.3054 44.7642 46.219 44.74C46.1261 44.7107 46.0292 44.6962 45.9318 44.6971H44.9772V44.3988H45.9906C46.1427 44.3968 46.2933 44.4286 46.4315 44.492C46.5584 44.5496 46.6666 44.6417 46.7438 44.7577C46.8231 44.8867 46.8627 45.0361 46.8576 45.1875C46.8617 45.3256 46.8247 45.4619 46.7513 45.579C46.6794 45.6879 46.5787 45.7747 46.4604 45.8298C46.3288 45.8904 46.1848 45.9192 46.04 45.9137L46.0418 45.9361ZM46.9443 46.9616H46.5499L46.0996 46.171C46.0594 46.0902 45.994 46.0248 45.9132 45.9846C45.816 45.9462 45.7118 45.9288 45.6074 45.9333L46.0428 45.8792C46.102 45.881 46.1604 45.8933 46.2153 45.9156C46.2677 45.9389 46.3162 45.9703 46.3588 46.0088C46.4075 46.0545 46.4482 46.1081 46.4791 46.1673L46.9443 46.9616Z" fill="white"/>
<path d="M47.6293 46.9617H47.2209V46.4648H47.6293V46.9617Z" fill="white"/>
<path d="M48.4562 46.9618H48.1206V44.4009H48.4562V46.9618ZM49.7977 46.9618H48.2371V46.6644H49.8005L49.7977 46.9618Z" fill="white"/>
<path d="M50.5417 46.9617H50.1343V46.4648H50.5426L50.5417 46.9617Z" fill="white"/>
</svg>
