<svg width="385" height="16" viewBox="0 0 385 16" fill="none" xmlns="http://www.w3.org/2000/svg">
<path d="M0.516 8.632C0.516 11.344 1.896 13.156 4.224 13.156C6.552 13.156 7.944 11.344 7.944 8.632C7.944 5.908 6.468 4.06 4.224 4.06C1.98 4.06 0.516 5.908 0.516 8.632ZM2.028 8.632C2.028 6.556 2.844 5.416 4.224 5.416C5.616 5.416 6.432 6.556 6.432 8.632C6.432 10.66 5.616 11.8 4.224 11.8C2.844 11.8 2.028 10.66 2.028 8.632ZM12.7338 8.656C13.9578 8.656 14.5338 9.304 14.5338 10.192C14.5338 11.164 13.8978 11.788 12.9378 11.788C12.0018 11.788 11.3778 11.212 11.3778 10.204H9.86578C9.86578 12.1 11.1978 13.156 12.9138 13.156C14.6898 13.156 16.0938 12.016 16.0938 10.216C16.0938 8.668 15.0498 7.684 13.7058 7.42L15.8418 5.452V4.228H10.2738V5.584H13.9218L11.6658 7.66V8.656H12.7338Z" fill="#AFAFAF"/>
<rect x="35" y="7" width="350" height="1" fill="#453B73" fill-opacity="0.2"/>
</svg>
