<svg width="385" height="16" viewBox="0 0 385 16" fill="none" xmlns="http://www.w3.org/2000/svg">
<path d="M0.516 8.632C0.516 11.344 1.896 13.156 4.224 13.156C6.552 13.156 7.944 11.344 7.944 8.632C7.944 5.908 6.468 4.06 4.224 4.06C1.98 4.06 0.516 5.908 0.516 8.632ZM2.028 8.632C2.028 6.556 2.844 5.416 4.224 5.416C5.616 5.416 6.432 6.556 6.432 8.632C6.432 10.66 5.616 11.8 4.224 11.8C2.844 11.8 2.028 10.66 2.028 8.632ZM16.9689 11.332V9.988H15.9009V4.228H13.9689L9.99694 9.988V11.332H14.4489V13H15.9009V11.332H16.9689ZM11.6289 9.988L14.4489 5.884V9.988H11.6289Z" fill="#AFAFAF"/>
<rect x="35" y="7" width="350" height="1" fill="#453B73" fill-opacity="0.2"/>
</svg>
