<svg width="97" height="17" viewBox="0 0 97 17" fill="none" xmlns="http://www.w3.org/2000/svg">
<rect x="63" width="20" height="1" fill="white"/>
<rect x="71" y="16" width="20" height="1" fill="white"/>
<rect x="57" y="8" width="40" height="1" fill="white"/>
<path d="M4.68 13.144C6.756 13.144 8.364 11.92 8.7 10.072H7.104C6.816 11.044 5.904 11.668 4.716 11.668C3.108 11.668 2.076 10.468 2.076 8.608C2.076 6.736 3.096 5.56 4.716 5.56C5.88 5.56 6.756 6.16 7.056 7.18H8.676C8.376 5.296 6.828 4.084 4.752 4.084C2.184 4.084 0.468 5.896 0.468 8.62C0.468 11.368 2.124 13.144 4.68 13.144ZM12.8135 4.228H11.2775V13H16.4855V11.584H12.8135V4.228ZM26.5166 8.608C26.5166 5.932 24.7646 4.072 22.2566 4.072C19.7486 4.072 18.0086 5.944 18.0086 8.608C18.0086 11.284 19.7366 13.144 22.2446 13.144C24.7646 13.144 26.5166 11.272 26.5166 8.608ZM24.8966 8.608C24.8966 10.456 23.8646 11.668 22.2566 11.668C20.6486 11.668 19.6166 10.48 19.6166 8.608C19.6166 6.736 20.6486 5.548 22.2566 5.548C23.8646 5.548 24.8966 6.736 24.8966 8.608ZM28.6422 6.676C28.6422 8.02 29.4222 8.872 30.9102 9.196L32.3022 9.508C33.0222 9.664 33.3222 10.012 33.3222 10.6C33.3222 11.332 32.6742 11.776 31.6542 11.776C30.6702 11.776 30.0702 11.332 30.0582 10.588H28.5222C28.5582 12.16 29.7822 13.156 31.6542 13.156C33.5862 13.156 34.8582 12.1 34.8582 10.468C34.8582 9.16 34.1262 8.392 32.6262 8.068L31.2462 7.768C30.5142 7.6 30.1782 7.252 30.1782 6.628C30.1782 5.896 30.7902 5.44 31.7382 5.44C32.6022 5.44 33.1422 5.884 33.1782 6.64H34.7142C34.6662 5.056 33.5382 4.072 31.7622 4.072C29.9142 4.072 28.6422 5.14 28.6422 6.676ZM42.8958 13V11.584H38.9838V9.256H42.4878V7.9H38.9838V5.644H42.8958V4.228H37.4478V13H42.8958Z" fill="white"/>
</svg>
